<svg width="248" height="78" viewBox="0 0 248 78" fill="none" xmlns="http://www.w3.org/2000/svg">
<path d="M18.5347 18.3521H17.9868C17.854 17.9702 17.6382 17.5386 17.3394 17.0571C17.0571 16.5757 16.6753 16.1274 16.1938 15.7124C15.729 15.2808 15.1562 14.9238 14.4756 14.6416C13.8115 14.3594 13.0229 14.2183 12.1099 14.2183C11.2964 14.2183 10.5742 14.3428 9.94336 14.5918C9.3125 14.8408 8.78125 15.1895 8.34961 15.6377C7.93457 16.0859 7.61914 16.6172 7.40332 17.2314C7.1875 17.8457 7.07959 18.5264 7.07959 19.2734C7.07959 20.4688 7.41162 21.6143 8.07568 22.71C8.75635 23.7891 9.60303 24.8599 10.6157 25.9224C11.6284 26.9849 12.7241 28.0474 13.9028 29.1099C15.0815 30.1724 16.1772 31.2764 17.1899 32.4219C18.2026 33.5674 19.041 34.771 19.7051 36.0327C20.3857 37.2778 20.7261 38.6226 20.7261 40.0669C20.7261 41.146 20.5352 42.2334 20.1533 43.3291C19.7881 44.4082 19.2153 45.3794 18.4351 46.2427C17.6548 47.106 16.6504 47.8115 15.4219 48.3594C14.1934 48.8906 12.7324 49.1562 11.0391 49.1562C10.0928 49.1562 9.18799 49.0649 8.32471 48.8823C7.47803 48.7163 6.68945 48.5088 5.95898 48.2598C5.24512 47.9941 4.59766 47.7119 4.0166 47.4131C3.45215 47.1143 2.9873 46.8403 2.62207 46.5913L3.19482 41.0879H3.81738C4 41.8682 4.29883 42.6152 4.71387 43.3291C5.12891 44.0264 5.63525 44.6489 6.23291 45.1968C6.84717 45.728 7.54443 46.1597 8.32471 46.4917C9.10498 46.8071 9.95996 46.9648 10.8896 46.9648C11.7363 46.9648 12.4917 46.8403 13.1558 46.5913C13.8364 46.3257 14.4175 45.9688 14.8989 45.5205C15.3804 45.0557 15.7456 44.5078 15.9946 43.877C16.2603 43.2461 16.3931 42.5571 16.3931 41.8101C16.3931 40.7642 16.2021 39.8013 15.8203 38.9214C15.4385 38.0249 14.9321 37.1782 14.3013 36.3813C13.687 35.5845 12.9814 34.8125 12.1846 34.0654C11.4043 33.3184 10.5991 32.5713 9.76904 31.8242C8.93896 31.0605 8.12549 30.2803 7.32861 29.4834C6.54834 28.6865 5.84277 27.8398 5.21191 26.9434C4.59766 26.0303 4.09961 25.0591 3.71777 24.0298C3.33594 22.9839 3.14502 21.8384 3.14502 20.5933C3.14502 19.2817 3.39404 18.103 3.89209 17.0571C4.40674 15.9946 5.0791 15.0898 5.90918 14.3428C6.75586 13.5957 7.71045 13.0229 8.77295 12.6245C9.83545 12.2261 10.9312 12.0269 12.0601 12.0269C12.8901 12.0269 13.6538 12.0933 14.3511 12.2261C15.0483 12.3589 15.6709 12.5166 16.2188 12.6992C16.7832 12.8818 17.2729 13.0645 17.688 13.2471C18.103 13.4297 18.4434 13.5791 18.709 13.6953L18.5347 18.3521ZM33.1523 23.457C31.6416 23.457 30.2637 23.5234 29.0186 23.6562C27.79 23.7891 26.7275 23.9302 25.8311 24.0796C24.8018 24.2622 23.8721 24.4614 23.042 24.6772L23.54 21.4648C23.7891 21.498 24.1958 21.5229 24.7603 21.5396C25.3247 21.5562 25.9141 21.5728 26.5283 21.5894C27.1592 21.5894 27.7485 21.5977 28.2964 21.6143C28.8608 21.6143 29.251 21.6143 29.4668 21.6143H41.2456C41.4448 21.6143 41.8101 21.6143 42.3413 21.6143C42.8892 21.5977 43.4702 21.5894 44.0845 21.5894C44.6987 21.5728 45.2881 21.5562 45.8525 21.5396C46.417 21.5229 46.8237 21.498 47.0728 21.4648L47.5708 24.6772C46.7739 24.4614 45.8608 24.2622 44.8315 24.0796C43.9517 23.9302 42.8892 23.7891 41.644 23.6562C40.4155 23.5234 39.0293 23.457 37.4854 23.457V38.1245C37.4854 39.6187 37.502 40.9219 37.5352 42.0342C37.5684 43.1465 37.6099 44.1094 37.6597 44.9229C37.7261 45.7197 37.8008 46.3921 37.8838 46.9399C37.9668 47.4878 38.0664 47.936 38.1826 48.2847V48.3843H32.4302V48.2847C32.5464 47.936 32.646 47.4878 32.729 46.9399C32.812 46.3921 32.8867 45.7197 32.9531 44.9229C33.0195 44.1094 33.0693 43.1465 33.1025 42.0342C33.1357 40.9219 33.1523 39.6187 33.1523 38.1245V23.457ZM50.8579 21.6143C52.4849 21.6143 54.1533 21.6143 55.8633 21.6143C57.5732 21.5977 59.1587 21.5811 60.6196 21.5645C62.0806 21.5313 63.334 21.498 64.3799 21.4648C65.4424 21.4316 66.1396 21.3818 66.4717 21.3154L65.5005 24.0049C65.0522 23.8887 64.5459 23.7808 63.9814 23.6812C63.4834 23.5981 62.8774 23.5234 62.1636 23.457C61.4663 23.374 60.6528 23.3325 59.7231 23.3325C59.3911 23.3325 59.0093 23.3491 58.5776 23.3823C58.146 23.3989 57.731 23.4238 57.3325 23.457C56.8677 23.4902 56.3945 23.5234 55.9131 23.5566V33.3931C57.2578 33.3765 58.4697 33.3433 59.5488 33.2935C60.6279 33.2437 61.5493 33.1772 62.313 33.0942C63.2095 33.0278 63.998 32.9365 64.6787 32.8203L64.0811 35.7837C63.168 35.6675 62.2466 35.5679 61.3169 35.4849C60.52 35.4019 59.6401 35.3354 58.6772 35.2856C57.7144 35.2192 56.793 35.186 55.9131 35.186V46.4917C57.457 46.4917 58.8765 46.4336 60.1714 46.3174C61.4663 46.1846 62.5952 46.0435 63.5581 45.894C64.687 45.7114 65.708 45.5039 66.6211 45.2715L66.0483 48.5337C65.7993 48.5171 65.3926 48.4922 64.8281 48.459C64.2803 48.4424 63.6992 48.4258 63.085 48.4092C62.4873 48.4092 61.9229 48.4009 61.3916 48.3843C60.8604 48.3843 60.4951 48.3843 60.2959 48.3843H50.8579V48.2847C50.9741 47.936 51.0737 47.4878 51.1567 46.9399C51.2563 46.3921 51.3311 45.7197 51.3809 44.9229C51.4473 44.1094 51.4971 43.1465 51.5303 42.0342C51.5635 40.9219 51.5801 39.6187 51.5801 38.1245V31.8491C51.5801 30.355 51.5635 29.0601 51.5303 27.9644C51.4971 26.8521 51.4473 25.8975 51.3809 25.1006C51.3311 24.2871 51.2563 23.6064 51.1567 23.0586C51.0737 22.5107 50.9741 22.0625 50.8579 21.7139V21.6143ZM77.2295 46.4419C78.7734 46.4419 80.1929 46.3838 81.4878 46.2676C82.7993 46.1348 83.9448 45.9937 84.9243 45.8442C86.0698 45.6616 87.1074 45.4541 88.0371 45.2217L87.4644 48.5337C87.2319 48.5171 86.8335 48.4922 86.269 48.459C85.7212 48.4424 85.1401 48.4258 84.5259 48.4092C83.9116 48.4092 83.3389 48.4009 82.8076 48.3843C82.2764 48.3843 81.9111 48.3843 81.7119 48.3843H72.1743V48.2847C72.2905 47.936 72.3901 47.4878 72.4731 46.9399C72.5728 46.3921 72.6475 45.7197 72.6973 44.9229C72.7637 44.1094 72.8135 43.1465 72.8467 42.0342C72.8799 40.9219 72.8965 39.6187 72.8965 38.1245V31.8491C72.8965 30.355 72.8799 29.0601 72.8467 27.9644C72.8135 26.8521 72.7637 25.8975 72.6973 25.1006C72.6475 24.2871 72.5728 23.6064 72.4731 23.0586C72.3901 22.5107 72.2905 22.0625 72.1743 21.7139V21.6143H77.9268V21.7139C77.8105 22.0625 77.7109 22.5107 77.6279 23.0586C77.5449 23.6064 77.4702 24.2871 77.4038 25.1006C77.354 25.8975 77.3125 26.8521 77.2793 27.9644C77.2461 29.0601 77.2295 30.355 77.2295 31.8491V46.4419ZM97.4004 46.4419C98.9443 46.4419 100.364 46.3838 101.659 46.2676C102.97 46.1348 104.116 45.9937 105.095 45.8442C106.241 45.6616 107.278 45.4541 108.208 45.2217L107.635 48.5337C107.403 48.5171 107.004 48.4922 106.44 48.459C105.892 48.4424 105.311 48.4258 104.697 48.4092C104.083 48.4092 103.51 48.4009 102.979 48.3843C102.447 48.3843 102.082 48.3843 101.883 48.3843H92.3452V48.2847C92.4614 47.936 92.561 47.4878 92.644 46.9399C92.7437 46.3921 92.8184 45.7197 92.8682 44.9229C92.9346 44.1094 92.9844 43.1465 93.0176 42.0342C93.0508 40.9219 93.0674 39.6187 93.0674 38.1245V31.8491C93.0674 30.355 93.0508 29.0601 93.0176 27.9644C92.9844 26.8521 92.9346 25.8975 92.8682 25.1006C92.8184 24.2871 92.7437 23.6064 92.644 23.0586C92.561 22.5107 92.4614 22.0625 92.3452 21.7139V21.6143H98.0977V21.7139C97.9814 22.0625 97.8818 22.5107 97.7988 23.0586C97.7158 23.6064 97.6411 24.2871 97.5747 25.1006C97.5249 25.8975 97.4834 26.8521 97.4502 27.9644C97.417 29.0601 97.4004 30.355 97.4004 31.8491V46.4419ZM128.777 39.9673C128.329 39.9673 127.765 39.9673 127.084 39.9673C126.42 39.9673 125.689 39.9673 124.893 39.9673C124.096 39.9673 123.274 39.9673 122.427 39.9673C121.581 39.9673 120.775 39.9756 120.012 39.9922C119.248 39.9922 118.551 40.0005 117.92 40.0171C117.289 40.0171 116.799 40.0171 116.451 40.0171L115.529 41.9595C115.131 42.7563 114.791 43.4536 114.508 44.0513C114.226 44.6323 113.994 45.147 113.811 45.5952C113.628 46.0435 113.496 46.4336 113.413 46.7656C113.33 47.0811 113.288 47.3799 113.288 47.6621C113.288 47.8447 113.296 47.9858 113.313 48.0854C113.33 48.1685 113.354 48.2349 113.388 48.2847V48.3843H109.005V48.2847C109.121 48.1685 109.304 47.9194 109.553 47.5376C109.802 47.1392 110.084 46.6577 110.399 46.0933C110.731 45.5288 111.08 44.8896 111.445 44.1758C111.827 43.4619 112.201 42.7231 112.566 41.9595L122.726 20.9917H124.594L134.555 41.9595C134.937 42.7563 135.318 43.52 135.7 44.2505C136.099 44.981 136.464 45.6367 136.796 46.2178C137.128 46.7822 137.418 47.2554 137.667 47.6372C137.917 48.0024 138.083 48.2183 138.166 48.2847V48.3843H131.791C131.824 48.2515 131.84 48.1353 131.84 48.0356C131.84 47.9194 131.84 47.7949 131.84 47.6621C131.84 47.2969 131.757 46.8569 131.591 46.3423C131.442 45.8276 131.251 45.3047 131.019 44.7734C130.803 44.2256 130.57 43.7026 130.321 43.2046C130.089 42.7065 129.898 42.2915 129.749 41.9595L128.777 39.9673ZM117.422 38.0249H118.941C119.638 38.0249 120.377 38.0249 121.157 38.0249C121.954 38.0083 122.751 38 123.548 38C124.345 38 125.117 38 125.864 38C126.611 37.9834 127.283 37.9751 127.881 37.9751L122.726 26.9683L117.422 38.0249ZM146.259 35.3853C146.591 35.4351 146.923 35.4766 147.255 35.5098C147.604 35.5264 147.936 35.5347 148.251 35.5347C150.326 35.5347 151.895 34.9785 152.958 33.8662C154.037 32.7539 154.576 31.0854 154.576 28.8608C154.576 27.0347 154.145 25.5903 153.281 24.5278C152.435 23.4653 151.181 22.9341 149.521 22.9341C148.99 22.9341 148.517 22.959 148.102 23.0088C147.703 23.042 147.363 23.0835 147.081 23.1333C146.765 23.1997 146.491 23.2661 146.259 23.3325V35.3853ZM150.069 37.0039C149.737 37.0537 149.405 37.0869 149.073 37.1035C148.757 37.1035 148.434 37.1035 148.102 37.1035C147.836 37.1035 147.545 37.0952 147.23 37.0786C146.915 37.062 146.591 37.0371 146.259 37.0039V38.2241C146.259 39.7017 146.275 40.9966 146.309 42.1089C146.342 43.2046 146.383 44.1509 146.433 44.9478C146.5 45.7446 146.574 46.417 146.657 46.9648C146.74 47.4961 146.84 47.936 146.956 48.2847V48.3843H141.204V48.2847C141.32 47.936 141.419 47.4878 141.502 46.9399C141.602 46.3921 141.677 45.7197 141.727 44.9229C141.793 44.1094 141.843 43.1465 141.876 42.0342C141.909 40.9219 141.926 39.6187 141.926 38.1245V31.8491C141.926 30.355 141.909 29.0601 141.876 27.9644C141.843 26.8521 141.793 25.8975 141.727 25.1006C141.677 24.2871 141.602 23.6064 141.502 23.0586C141.419 22.5107 141.32 22.0625 141.204 21.7139V21.6143C141.469 21.6309 141.751 21.6475 142.05 21.6641C142.299 21.6807 142.573 21.6973 142.872 21.7139C143.188 21.7139 143.503 21.7139 143.818 21.7139C144.35 21.7139 145.138 21.6641 146.184 21.5645C147.23 21.4648 148.458 21.415 149.87 21.415C151.297 21.415 152.592 21.5894 153.754 21.938C154.933 22.2866 155.938 22.7847 156.768 23.4321C157.614 24.0796 158.262 24.8682 158.71 25.7979C159.175 26.7275 159.407 27.7651 159.407 28.9106C159.407 29.8071 159.283 30.6289 159.034 31.376C158.785 32.1064 158.436 32.7705 157.988 33.3682C157.54 33.9492 157.008 34.4639 156.394 34.9121C155.78 35.3604 155.099 35.7505 154.352 36.0825L159.557 43.4287C160.005 44.0264 160.453 44.5991 160.901 45.147C161.366 45.6948 161.806 46.1846 162.221 46.6162C162.636 47.0479 163.026 47.4131 163.392 47.7119C163.757 47.9941 164.064 48.1851 164.313 48.2847V48.3843H157.789C157.789 48.2349 157.681 47.9775 157.465 47.6123C157.266 47.2305 157.025 46.8403 156.743 46.4419C156.477 46.0269 156.203 45.6284 155.921 45.2466C155.655 44.8647 155.456 44.5825 155.323 44.3999L150.069 37.0039ZM206.946 31.3013C206.282 31.2847 205.452 31.2764 204.456 31.2764C203.459 31.2598 202.372 31.2432 201.193 31.2266C200.031 31.21 198.811 31.2017 197.533 31.2017C196.271 31.1851 195.034 31.1768 193.822 31.1768C192.61 31.1602 191.457 31.1602 190.361 31.1768C189.265 31.1934 188.311 31.2183 187.497 31.2515V38.6475C187.497 40.0586 187.514 41.2954 187.547 42.3579C187.597 43.4038 187.646 44.3086 187.696 45.0723C187.763 45.8359 187.837 46.4751 187.92 46.9897C188.02 47.5044 188.12 47.936 188.219 48.2847V48.3843H182.243V48.2847C182.342 47.936 182.434 47.5044 182.517 46.9897C182.616 46.4751 182.699 45.8359 182.766 45.0723C182.832 44.3086 182.882 43.4038 182.915 42.3579C182.948 41.2954 182.965 40.0586 182.965 38.6475V22.436C182.965 21.0249 182.948 19.7964 182.915 18.7505C182.882 17.688 182.832 16.7749 182.766 16.0112C182.699 15.231 182.616 14.5835 182.517 14.0688C182.434 13.5542 182.342 13.1226 182.243 12.7739V12.6743H188.219V12.7739C188.12 13.1226 188.02 13.5542 187.92 14.0688C187.837 14.5835 187.763 15.231 187.696 16.0112C187.646 16.7749 187.597 17.688 187.547 18.7505C187.514 19.7964 187.497 21.0249 187.497 22.436V28.811C188.36 28.8442 189.34 28.8691 190.436 28.8857C191.531 28.8857 192.677 28.8857 193.872 28.8857C195.067 28.8691 196.279 28.8525 197.508 28.8359C198.753 28.8193 199.948 28.8027 201.094 28.7861C202.256 28.7529 203.335 28.7197 204.331 28.6865C205.344 28.6533 206.215 28.6201 206.946 28.5869V22.436C206.946 21.0249 206.921 19.7964 206.871 18.7505C206.838 17.688 206.788 16.7749 206.722 16.0112C206.672 15.231 206.597 14.5835 206.498 14.0688C206.415 13.5542 206.323 13.1226 206.224 12.7739V12.6743H212.2V12.7739C212.101 13.1226 212.001 13.5542 211.901 14.0688C211.818 14.5835 211.744 15.231 211.677 16.0112C211.611 16.7749 211.561 17.688 211.528 18.7505C211.495 19.7964 211.478 21.0249 211.478 22.436V38.6475C211.478 40.0586 211.495 41.2954 211.528 42.3579C211.561 43.4038 211.611 44.3086 211.677 45.0723C211.744 45.8359 211.818 46.4751 211.901 46.9897C212.001 47.5044 212.101 47.936 212.2 48.2847V48.3843H206.224V48.2847C206.323 47.936 206.415 47.5044 206.498 46.9897C206.597 46.4751 206.672 45.8359 206.722 45.0723C206.788 44.3086 206.838 43.4038 206.871 42.3579C206.921 41.2954 206.946 40.0586 206.946 38.6475V31.3013ZM224.602 38.6475C224.602 40.0586 224.618 41.2954 224.651 42.3579C224.701 43.4038 224.751 44.3086 224.801 45.0723C224.867 45.8359 224.942 46.4751 225.025 46.9897C225.125 47.5044 225.224 47.936 225.324 48.2847V48.3843H219.347V48.2847C219.447 47.936 219.538 47.5044 219.621 46.9897C219.721 46.4751 219.804 45.8359 219.87 45.0723C219.937 44.3086 219.986 43.4038 220.02 42.3579C220.053 41.2954 220.069 40.0586 220.069 38.6475V22.436C220.069 21.0249 220.053 19.7964 220.02 18.7505C219.986 17.688 219.937 16.7749 219.87 16.0112C219.804 15.231 219.721 14.5835 219.621 14.0688C219.538 13.5542 219.447 13.1226 219.347 12.7739V12.6743C219.679 12.7075 220.028 12.7407 220.393 12.7739C220.708 12.8071 221.057 12.832 221.439 12.8486C221.837 12.8486 222.244 12.8486 222.659 12.8486C223.307 12.8486 224.178 12.7739 225.274 12.6245C226.386 12.4585 227.797 12.3755 229.507 12.3755C231.101 12.3755 232.57 12.5913 233.915 13.0229C235.276 13.4546 236.455 14.0854 237.451 14.9155C238.447 15.7456 239.219 16.7666 239.767 17.9785C240.332 19.1738 240.614 20.5352 240.614 22.0625C240.614 23.2578 240.456 24.3701 240.141 25.3994C239.842 26.4121 239.41 27.3335 238.846 28.1636C238.298 28.9937 237.634 29.7324 236.854 30.3799C236.073 31.0107 235.202 31.542 234.239 31.9736L242.979 44.2505C243.411 44.8647 243.81 45.396 244.175 45.8442C244.557 46.2925 244.914 46.6743 245.246 46.9897C245.594 47.3052 245.926 47.5708 246.242 47.7866C246.557 47.9858 246.881 48.1519 247.213 48.2847V48.3843H240.016C239.966 48.0688 239.8 47.6538 239.518 47.1392C239.252 46.6079 238.937 46.085 238.572 45.5703L229.756 33.144C228.943 33.2271 228.104 33.2686 227.241 33.2686C226.378 33.2686 225.498 33.1938 224.602 33.0444V38.6475ZM224.602 31.1021C226.229 31.4009 227.714 31.4424 229.059 31.2266C230.42 31.0107 231.583 30.5376 232.545 29.8071C233.525 29.0767 234.28 28.0889 234.812 26.8438C235.359 25.582 235.633 24.0547 235.633 22.2617C235.633 21.0166 235.492 19.8877 235.21 18.875C234.928 17.8623 234.504 17.0073 233.94 16.3101C233.392 15.5962 232.695 15.0483 231.848 14.6665C231.001 14.2681 230.014 14.0688 228.885 14.0688C228.171 14.0688 227.548 14.1021 227.017 14.1685C226.486 14.2183 226.038 14.2764 225.672 14.3428C225.241 14.4258 224.884 14.5171 224.602 14.6167V31.1021Z" fill="#13151E"/>
<path d="M246 68.8166C245.075 69.3248 244.312 69.4121 243.537 69.3962C239.093 69.3009 234.643 69.158 230.199 69.0865C226.805 69.031 223.298 68.5784 220.041 69.158C214.297 70.1823 208.565 69.3962 202.845 69.6741C196.259 69.9917 189.609 69.8806 182.982 69.8091C177.232 69.7456 171.482 69.3327 165.714 69.5868C163.471 69.6821 161.198 69.2215 158.955 69.5312C155.651 69.9917 152.37 69.9123 149.078 69.4915C147.575 69.3009 146.143 69.7853 144.67 69.8965C140.769 70.1982 136.862 70.2379 132.955 70.3173C132.269 70.3332 131.523 70.3888 130.903 70.627C128.696 71.4607 126.322 71.8339 124.014 71.826C120.083 71.818 116.271 72.6359 112.323 72.5882C105.624 72.5009 98.9136 73.025 92.2092 72.9932C85.7612 72.9694 79.3132 72.882 72.8653 72.9694C70.4197 73.0011 67.9861 73.0806 65.5524 73.3108C64.771 73.3823 63.9837 73.5173 63.2082 73.4617C58.0248 73.1203 52.9666 74.0731 47.8488 74.4939C43.2559 74.8671 38.669 75.3515 34.0641 75.6532C28.4155 76.0185 22.7847 76.6617 17.1837 77.4001C12.561 78.0115 8.14702 77.2175 3.72709 76.3282C2.0987 76.0026 0.0825889 73.422 0.00504633 71.953C-0.0665315 70.492 0.619422 69.7377 2.31343 69.3883C6.64985 68.499 11.1235 68.4593 15.5016 67.7129C25.099 66.0692 34.8038 65.037 44.5682 64.5129C52.233 64.1 59.9037 63.9332 67.5864 63.9571C73.5154 63.9729 79.4504 63.7109 85.3735 63.838C91.7439 63.9729 98.1024 63.7109 104.467 63.7109C114.494 63.7109 124.527 63.4012 134.553 63.3854C143.28 63.3695 152.006 63.5283 160.727 63.9491C176.593 64.7193 192.484 65.1799 208.332 66.1962C219.218 66.895 230.116 67.3714 241.001 68.0225C242.63 68.1178 244.205 68.4275 245.994 68.8166H246Z" fill="#FFCC00"/>
</svg>
